/* XPM */
static char *result[] = {
/* columns rows colors chars-per-pixel */
"16 16 66 1 ",
"  c gray13",
". c #232423",
"X c #232523",
"o c #242624",
"O c #242724",
"+ c #272C27",
"@ c #282E28",
"# c #292F29",
"$ c #2C352C",
"% c #2C362C",
"& c #2D382D",
"* c #2F3B2F",
"= c #324232",
"- c #354535",
"; c #354635",
": c #354735",
"> c #374A37",
", c #394D39",
"< c #3A4F3A",
"1 c #3C533C",
"2 c #3C543C",
"3 c #3E563E",
"4 c #3E573E",
"5 c #3E583E",
"6 c #425F42",
"7 c #436143",
"8 c #466646",
"9 c #486948",
"0 c #4B6E4B",
"q c #4C704C",
"w c #4C714C",
"e c #4D744D",
"r c #4E744E",
"t c #4E764E",
"y c #507850",
"u c #507950",
"i c #517A51",
"p c #527C52",
"a c #537F53",
"s c #578657",
"d c #588858",
"f c #5A8C5A",
"g c #5C8F5C",
"h c #5C905C",
"j c #5D925D",
"k c #5E935E",
"l c #619961",
"z c #639C63",
"x c #639D63",
"c c #659F65",
"v c #65A065",
"b c #66A266",
"n c #68A568",
"m c #6DAE6D",
"M c #6DB06D",
"N c #6EB16E",
"B c #6EB26E",
"V c #6FB26F",
"C c #71B771",
"Z c #72B872",
"A c #72B972",
"S c #73BA73",
"D c #74BC74",
"F c #75BF75",
"G c #76C176",
"H c #77C277",
/* pixels */
"   1bbbbbvg7.   ",
"   6HHHHHHHHlX  ",
"   6Hyooo+:nH8  ",
"   6Ht     ;Hl  ",
"   6Ht     @Hc  ",
"   6Ht     2Hi  ",
"   6Hf<<<2wAm#  ",
"   6HHHHHHHF3   ",
"   6HvuuuphDH0  ",
"   6Ht     &CG* ",
" =tkHxree@  pH9 ",
" 5MCHSNBB&  qHw ",
"   6Ht      zH4 ",
"   6Ha$$$%-dHVO ",
"   6HHHHHHHHZ>  ",
"   ,kkkkkjs8@   "
};
