/* XPM */
static char *result[] = {
/* columns rows colors chars-per-pixel */
"64 64 147 2 ",
"   c gray13",
".  c #222222",
"X  c #222322",
"o  c #222422",
"O  c #232423",
"+  c #232523",
"@  c #242524",
"#  c #242624",
"$  c #242724",
"%  c #252825",
"&  c #252925",
"*  c #262926",
"=  c #262A26",
"-  c #262B26",
";  c #272B27",
":  c #272C27",
">  c #272D27",
",  c #282D28",
"<  c #292F29",
"1  c #293029",
"2  c #293129",
"3  c #2A312A",
"4  c #2A322A",
"5  c #2B322B",
"6  c #2B332B",
"7  c #2C342C",
"8  c #2C352C",
"9  c #2D362D",
"0  c #2D372D",
"q  c #2D382D",
"w  c #2E382E",
"e  c #2E3A2E",
"r  c #2F3A2F",
"t  c #2F3B2F",
"y  c #303C30",
"u  c #303D30",
"i  c #313E31",
"p  c #313F31",
"a  c #323F32",
"s  c #324032",
"d  c #324132",
"f  c #334133",
"g  c #334233",
"h  c #344334",
"j  c #344434",
"k  c #354535",
"l  c #354635",
"z  c #364836",
"x  c #374937",
"c  c #374A37",
"v  c #384B38",
"b  c #394C39",
"n  c #394E39",
"m  c #3A4F3A",
"M  c #3A503A",
"N  c #3B513B",
"B  c #3B523B",
"V  c #3C533C",
"C  c #3D553D",
"Z  c #3D563D",
"A  c #3E563E",
"S  c #405A40",
"D  c #415B41",
"F  c #415C41",
"G  c #415D41",
"H  c #415E41",
"J  c #425F42",
"K  c #435F43",
"L  c #436043",
"P  c #436143",
"I  c #446244",
"U  c #456445",
"Y  c #456545",
"T  c #466546",
"R  c #476747",
"E  c #476847",
"W  c #486948",
"Q  c #496B49",
"!  c #496C49",
"~  c #4A6D4A",
"^  c #4A6E4A",
"/  c #4B6E4B",
"(  c #4B704B",
")  c #4C714C",
"_  c #4D734D",
"`  c #4E744E",
"'  c #4F764F",
"]  c #4F774F",
"[  c #507850",
"{  c #507950",
"}  c #507A50",
"|  c #517A51",
" . c #517B51",
".. c #537E53",
"X. c #537F53",
"o. c #547F54",
"O. c #548054",
"+. c #548154",
"@. c #558255",
"#. c #578557",
"$. c #578657",
"%. c #588858",
"&. c #5A8A5A",
"*. c #5B8D5B",
"=. c #5C8F5C",
"-. c #5D905D",
";. c #5D915D",
":. c #5E925E",
">. c #5F955F",
",. c #619861",
"<. c #619961",
"1. c #629962",
"2. c #629A62",
"3. c #629B62",
"4. c #639B63",
"5. c #649E64",
"6. c #65A165",
"7. c #66A266",
"8. c #68A668",
"9. c #69A669",
"0. c #69A769",
"q. c #69A869",
"w. c #6AA86A",
"e. c #6AA96A",
"r. c #6BAA6B",
"t. c #6CAD6C",
"y. c #6CAE6C",
"u. c #6DAF6D",
"i. c #6DB06D",
"p. c #6EB06E",
"a. c #6EB16E",
"s. c #6FB36F",
"d. c #70B470",
"f. c #70B570",
"g. c #71B671",
"h. c #72B872",
"j. c #72B972",
"k. c #73BA73",
"l. c #74BC74",
"z. c #74BD74",
"x. c #75BD75",
"c. c #75BE75",
"v. c #76BF76",
"b. c #76C076",
"n. c #76C176",
"m. c #77C177",
"M. c #77C277",
/* pixels */
"                            6 g g g g g g g g g g g g g g g g g g g g g g p q :                                                 ",
"                            ] M.M.M.M.M.M.M.M.M.M.M.M.M.M.M.M.M.M.M.M.M.M.M.M.M.l.0.&.R t                                       ",
"                            ] M.M.M.M.M.M.M.M.M.M.M.M.M.M.M.M.M.M.M.M.M.M.M.M.M.M.M.M.M.M.0.T $                                 ",
"                            ] M.M.M.M.M.M.M.M.M.M.M.M.M.M.M.M.M.M.M.M.M.M.M.M.M.M.M.M.M.M.M.M.p.C                               ",
"                            ] M.M.M.M.M.M.M.M.M.M.M.M.M.M.M.M.M.M.M.M.M.M.M.M.M.M.M.M.M.M.M.M.M.M.@.O                           ",
"                            ] M.M.M.M.M.M.M.M.M.M.M.M.M.M.M.M.M.M.M.M.M.M.M.M.M.M.M.M.M.M.M.M.M.M.M.:.+                         ",
"                            ] M.M.M.M.M.M.M.M.M.M.M.M.M.M.M.M.M.M.M.M.M.M.M.M.M.M.M.M.M.M.M.M.M.M.M.M.#.                        ",
"                            ] M.M.M.M.M.M.M.M.M.M.M.M.M.M.M.M.M.M.M.M.M.M.M.M.M.M.M.M.M.M.M.M.M.M.M.M.M.F                       ",
"                            ] M.M.M.M.M.M.M.j 7 7 7 7 7 7 7 7 7 7 7 8 w u k N I [ ,.z.M.M.M.M.M.M.M.M.M.g.:                     ",
"                            ] M.M.M.M.M.M.M.5                                       = Q k.M.M.M.M.M.M.M.M.'                     ",
"                            ] M.M.M.M.M.M.M.5                                           e u.M.M.M.M.M.M.M.j.&                   ",
"                            ] M.M.M.M.M.M.M.5                                             y l.M.M.M.M.M.M.M.G                   ",
"                            ] M.M.M.M.M.M.M.5                                               ) M.M.M.M.M.M.M.=.                  ",
"                            ] M.M.M.M.M.M.M.5                                               ; l.M.M.M.M.M.M.f.                  ",
"                            ] M.M.M.M.M.M.M.5                                                 -.M.M.M.M.M.M.M.1                 ",
"                            ] M.M.M.M.M.M.M.5                                                 ! M.M.M.M.M.M.M.d                 ",
"                            ] M.M.M.M.M.M.M.5                                                 A M.M.M.M.M.M.M.z                 ",
"                            ] M.M.M.M.M.M.M.5                                                 m M.M.M.M.M.M.M.j                 ",
"                            ] M.M.M.M.M.M.M.5                                                 V M.M.M.M.M.M.M.9                 ",
"                            ] M.M.M.M.M.M.M.5                                                 U M.M.M.M.M.M.l.X                 ",
"                            ] M.M.M.M.M.M.M.5                                                 #.M.M.M.M.M.M.1.                  ",
"                            ] M.M.M.M.M.M.M.5                                               + f.M.M.M.M.M.M.E                   ",
"                            ] M.M.M.M.M.M.M.5                                               Y M.M.M.M.M.M.x.<                   ",
"                            ] M.M.M.M.M.M.M.5                                             r j.M.M.M.M.M.M.O.                    ",
"                            ] M.M.M.M.M.M.M.5                                           s a.M.M.M.M.M.M.h.1                     ",
"                            ] M.M.M.M.M.M.M.5                                       4 { c.M.M.M.M.M.M.M.S                       ",
"                            ] M.M.M.M.M.M.M.l 0 0 0 0 0 0 0 0 0 0 0 0 w y h n J ] 3.b.M.M.M.M.M.M.M.M.'                         ",
"                            ] M.M.M.M.M.M.M.M.M.M.M.M.M.M.M.M.M.M.M.M.M.M.M.M.M.M.M.M.M.M.M.M.M.M.M.'                           ",
"                            ] M.M.M.M.M.M.M.M.M.M.M.M.M.M.M.M.M.M.M.M.M.M.M.M.M.M.M.M.M.M.M.M.M.j.S                             ",
"                            ] M.M.M.M.M.M.M.M.M.M.M.M.M.M.M.M.M.M.M.M.M.M.M.M.M.M.M.M.M.M.M.M.>.5                               ",
"                            ] M.M.M.M.M.M.M.M.M.M.M.M.M.M.M.M.M.M.M.M.M.M.M.M.M.M.M.M.M.M.M.M.b.:.b                             ",
"                            ] M.M.M.M.M.M.M.M.M.M.M.M.M.M.M.M.M.M.M.M.M.M.M.M.M.M.M.M.M.M.M.M.M.M.M.3.u                         ",
"                            ] M.M.M.M.M.M.M.M.M.M.M.M.M.M.M.M.M.M.M.M.M.M.M.M.M.M.M.M.M.M.M.M.M.M.M.M.c.T                       ",
"                            ] M.M.M.M.M.M.M.M.M.M.M.M.M.M.M.M.M.M.M.M.M.M.M.M.M.M.M.M.M.M.M.M.M.M.M.M.M.M.{                     ",
"                            ] M.M.M.M.M.M.M.n a a a a a a a a a a a a s f l m D ^ $.0.m.M.M.M.M.M.M.M.M.M.M./                   ",
"                            ] M.M.M.M.M.M.M.5                                         4 ~ d.M.M.M.M.M.M.M.M.n.v                 ",
"                            ] M.M.M.M.M.M.M.5                                             - &.M.M.M.M.M.M.M.M.t.#               ",
"                            ] M.M.M.M.M.M.M.5                                                 ..M.M.M.M.M.M.M.M.R               ",
"                            ] M.M.M.M.M.M.M.5                                                 X 1.M.M.M.M.M.M.M.y..             ",
"                            ] M.M.M.M.M.M.M.5                                                   e b.M.M.M.M.M.M.M.z             ",
"                            ] M.M.M.M.M.M.M.5                                                     *.M.M.M.M.M.M.M.'             ",
"            - 6 4 4 4 3 3 2 ..M.M.M.M.M.M.M.i , > > : : : ; - - = = = * #                         Z M.M.M.M.M.M.M.<.            ",
"            ] M.M.M.M.M.M.M.M.M.M.M.M.M.M.M.M.M.M.M.M.M.M.M.M.M.M.M.M.M.#.                        1 M.M.M.M.M.M.M.a.            ",
"            ] M.M.M.M.M.M.M.M.M.M.M.M.M.M.M.M.M.M.M.M.M.M.M.M.M.M.M.M.M.#.                          k.M.M.M.M.M.M.b..           ",
"            ] M.M.M.M.M.M.M.M.M.M.M.M.M.M.M.M.M.M.M.M.M.M.M.M.M.M.M.M.M.#.                          i.M.M.M.M.M.M.M.$           ",
"            ] M.M.M.M.M.M.M.M.M.M.M.M.M.M.M.M.M.M.M.M.M.M.M.M.M.M.M.M.M.#.                          a.M.M.M.M.M.M.M.@           ",
"            ] M.M.M.M.M.M.M.M.M.M.M.M.M.M.M.M.M.M.M.M.M.M.M.M.M.M.M.M.M.#.                        . x.M.M.M.M.M.M.c.            ",
"            M { { { } | |  .6.M.M.M.M.M.M.M.#.....X.X.X.O.O.O.+.+.+.@.@.H                         0 M.M.M.M.M.M.M.t.            ",
"                            ] M.M.M.M.M.M.M.5                                                     P M.M.M.M.M.M.M.>.            ",
"                            ] M.M.M.M.M.M.M.5                                                     4.M.M.M.M.M.M.M._             ",
"                            ] M.M.M.M.M.M.M.5                                                   x M.M.M.M.M.M.M.M.z             ",
"                            ] M.M.M.M.M.M.M.5                                                 % e.M.M.M.M.M.M.M.s.X             ",
"                            ] M.M.M.M.M.M.M.5                                               + ;.M.M.M.M.M.M.M.M.'               ",
"                            ] M.M.M.M.M.M.M.5                                             e 5.M.M.M.M.M.M.M.M.z.3               ",
"                            ] M.M.M.M.M.M.M.5                                       O v %.v.M.M.M.M.M.M.M.M.M.{                 ",
"                            ] M.M.M.M.M.M.M.[ ( ( ( ( ( ( ( ( ( ( ( ( ( ( ) `  .$.4.k.M.M.M.M.M.M.M.M.M.M.M.p.=                 ",
"                            ] M.M.M.M.M.M.M.M.M.M.M.M.M.M.M.M.M.M.M.M.M.M.M.M.M.M.M.M.M.M.M.M.M.M.M.M.M.M.b.c                   ",
"                            ] M.M.M.M.M.M.M.M.M.M.M.M.M.M.M.M.M.M.M.M.M.M.M.M.M.M.M.M.M.M.M.M.M.M.M.M.M.M.I                     ",
"                            ] M.M.M.M.M.M.M.M.M.M.M.M.M.M.M.M.M.M.M.M.M.M.M.M.M.M.M.M.M.M.M.M.M.M.M.M.c.K                       ",
"                            ] M.M.M.M.M.M.M.M.M.M.M.M.M.M.M.M.M.M.M.M.M.M.M.M.M.M.M.M.M.M.M.M.M.M.M.8.g                         ",
"                            ] M.M.M.M.M.M.M.M.M.M.M.M.M.M.M.M.M.M.M.M.M.M.M.M.M.M.M.M.M.M.M.M.M.r.L o                           ",
"                            ] M.M.M.M.M.M.M.M.M.M.M.M.M.M.M.M.M.M.M.M.M.M.M.M.M.M.M.M.M.M.y.O.c .                               ",
"                            W w.w.w.w.w.w.w.w.w.w.w.w.w.w.w.w.w.w.w.w.w.q.9.7.2.=.o.Q B 6                                       ",
"                                                                                                                                "
};
