/* XPM */
static char *result[] = {
/* columns rows colors chars-per-pixel */
"32 32 99 2 ",
"   c gray13",
".  c #212221",
"X  c #222222",
"o  c #222322",
"O  c #222422",
"+  c #232523",
"@  c #232623",
"#  c #242624",
"$  c #242724",
"%  c #252825",
"&  c #252925",
"*  c #262A26",
"=  c #262B26",
"-  c #272B27",
";  c #272C27",
":  c #282E28",
">  c #293029",
",  c #293129",
"<  c #2A312A",
"1  c #2A322A",
"2  c #2B332B",
"3  c #2B342B",
"4  c #2E382E",
"5  c #2E3A2E",
"6  c #2F3A2F",
"7  c #2F3B2F",
"8  c #303D30",
"9  c #313E31",
"0  c #313F31",
"q  c #324032",
"w  c #354635",
"e  c #364836",
"r  c #364936",
"t  c #374937",
"y  c #384C38",
"u  c #394D39",
"i  c #3A4F3A",
"p  c #3B513B",
"a  c #3C533C",
"s  c #3C543C",
"d  c #3D543D",
"f  c #3D553D",
"g  c #3F593F",
"h  c #435F43",
"j  c #436043",
"k  c #446244",
"l  c #456445",
"z  c #456545",
"x  c #476747",
"c  c #486948",
"v  c #496C49",
"b  c #4B6F4B",
"n  c #4B704B",
"m  c #4E744E",
"M  c #4E764E",
"N  c #4F764F",
"B  c #507850",
"V  c #517A51",
"C  c #517B51",
"Z  c #527D52",
"A  c #548054",
"S  c #548154",
"D  c #558155",
"F  c #558255",
"G  c #568456",
"H  c #578557",
"J  c #578657",
"K  c #578757",
"L  c #5A8C5A",
"P  c #5E935E",
"I  c #5F955F",
"U  c #619961",
"Y  c #629A62",
"T  c #639C63",
"R  c #639D63",
"E  c #649E64",
"W  c #65A065",
"Q  c #65A165",
"!  c #66A166",
"~  c #66A266",
"^  c #67A367",
"/  c #67A567",
"(  c #68A568",
")  c #69A869",
"_  c #6AA96A",
"`  c #6EB06E",
"'  c #6FB26F",
"]  c #6FB36F",
"[  c #71B771",
"{  c #72B972",
"}  c #73BA73",
"|  c #73BB73",
" . c #74BC74",
".. c #74BD74",
"X. c #75BD75",
"o. c #76C076",
"O. c #76C176",
"+. c #77C177",
"@. c #77C277",
/* pixels */
"              v F F F F F F F F F F D V c u %                   ",
"              R @.@.@.@.@.@.@.@.@.@.@.@.@.@.| A :               ",
"              R @.@.@.@.@.@.@.@.@.@.@.@.@.@.@.@.' 0             ",
"              R @.@.@.@.@.@.@.@.@.@.@.@.@.@.@.@.@.] >           ",
"              R @.@.@.2 = = = = = ; < 8 d H o.@.@.@.K           ",
"              R @.@.@.*                     p O.@.@.o.1         ",
"              R @.@.@.*                       K @.@.@.k         ",
"              R @.@.@.*                       i @.@.@.Z         ",
"              R @.@.@.*                       5 @.@.@.G         ",
"              R @.@.@.*                       9 @.@.@.M         ",
"              R @.@.@.*                       j @.@.@.p         ",
"              R @.@.@.*                     $ ) @.@.` +         ",
"              R @.@.@.*                   7 T @.@.@.g           ",
"              R @.@.@.A Z Z Z Z Z Z S L ( +.@.@.@.m             ",
"              R @.@.@.@.@.@.@.@.@.@.@.@.@.@.@.[ g               ",
"              R @.@.@.@.@.@.@.@.@.@.@.@.@.@.@.+.U w             ",
"              R @.@.@.@.@.@.@.@.@.@.@.@.@.@.@.@.@.O.n           ",
"              R @.@.@.4 > > > > > > 1 7 u b _ @.@.@.@.x         ",
"              R @.@.@.*                     o C @.@.@...3       ",
"              R @.@.@.*                         I @.@.@.N       ",
"      % * & & E @.@.@.> $ $ # # @ + X           t @.@.@./       ",
"      R @.@.@.@.@.@.@.@.@.@.@.@.@.@.a           + o.@.@.X.      ",
"      R @.@.@.@.@.@.@.@.@.@.@.@.@.@.a             { @.@.@.O     ",
"      A E E E } @.@.@.~ W Q Q ! ~ ~ r           $ O.@.@. .      ",
"              R @.@.@.*                         i @.@.@.^       ",
"              R @.@.@.*                       o E @.@.@.B       ",
"              R @.@.@.*                     $ J @.@.@.O.6       ",
"              R @.@.@.i e e e e e e r y g C ] @.@.@.@.H         ",
"              R @.@.@.@.@.@.@.@.@.@.@.@.@.@.@.@.@.@._ -         ",
"              R @.@.@.@.@.@.@.@.@.@.@.@.@.@.@.@.@.Y ,           ",
"              R @.@.@.@.@.@.@.@.@.@.@.@.@.@...P a .             ",
"              f z z z z z z z z z z l h s q +                   "
};
