/* XPM */
static char *_3284e76f15540e7ecd7de147d9a9b405g3XBt4xwaSMUl0m[] = {
/* columns rows colors chars-per-pixel */
"32 32 48 1 ",
"  c None",
". c #191319",
"X c #1B171B",
"o c #1D1B1D",
"O c #1E1C1E",
"+ c #1F1D1F",
"@ c #1F1E1F",
"# c #201F20",
"$ c #202020",
"% c #202120",
"& c gray13",
"* c #212221",
"= c #222222",
"- c #222322",
"; c #232523",
": c #232623",
"> c gray14",
", c #242624",
"< c gray15",
"1 c #324232",
"2 c #334333",
"3 c #364836",
"4 c #405D40",
"5 c #456545",
"6 c #496C49",
"7 c #517B51",
"8 c #538053",
"9 c #5A8B5A",
"0 c #5D915D",
"q c #5F955F",
"w c #629B62",
"e c #65A065",
"r c #6BAC6B",
"t c #6CAD6C",
"y c #70B470",
"u c #72B972",
"i c #72BB72",
"p c #73BA73",
"a c #75BE75",
"s c #77C277",
"d c #78C378",
"f c #78C478",
"g c #78C578",
"h c #79C679",
"j c #7AC87A",
"k c #7BC97B",
"l c #7CCC7C",
"z c #7ED07E",
/* pixels */
"           $$>$$$$$><           ",
"         >$$$$>$>$$$$$>         ",
"       $$$$$$$$$$>$>>$>$$       ",
"      $$$>$$>$>$$$$$$$$$$$      ",
"     $>$$$;$$$$$$>$$$$;$$$$     ",
"    $$$$$;dddddsddssz$$$$>$$    ",
"   $$$>$$>ssdsddssssfd7$>$$>$   ",
"  $>$>$$$$sdt$##+;isddf$$$$$>$  ",
"  $>$>$>$;dst$$$$$$$qsss>$$>$>  ",
" $$$$$$$$>sst$>$>$>$$sss$$$$$$$ ",
" >$>$>$$$;sst$$>$$$>$jss#>$>$$$ ",
">$$$$$>$$$sst$$$>$$$$dss$$$$>$>$",
"$$$>$$$>$>ssr$$$$>$$$dss$$$$$>$$",
">$$$>$$$$;sst$$$$$$$ssso>$>$$$>$",
"$>$>$>$>$;dsdsssssdddd>$$$$>$$$$",
"$$$$$$$$$>ssssssssdddj$$>$$$>$>$",
"$>$>$>$>$;ssy2>XX2pddds3$$$>$>$$",
"$$$$$$$$$$sst$$$$$$$$dss#$$$$$>$",
"$>$$$>$$$>ssr$#$$$$$$$ssd$$>$$$$",
"$$>$$$$tttsdaw9764$>$#ssd$$$>$>$",
"$$$$>$$assssdddsfl$$$>ssd$$$$>$$",
" >$>$$$w00ssfjirew>$$$ssd$>$$$$ ",
" $$$>$>$$;sst$$$$$$$$odsd$$>$$> ",
"  $>$$$$$$sst$$$>$>$>ddsf$$$>$  ",
"  >$$$$$$>fst;#+#$5dssdf$$$>$$  ",
"   $$>$>$>dssssdssddsdd$$>$$$   ",
"    >$$$>$ddsdddssddj#$$$$$>    ",
"     $$>$$$$$$$$$$$$$#>$$>$     ",
"      $$>$$$$$$$$>$$$$$$$>      ",
"       $$$$>>$>$$$>$>$>$$       ",
"         $>$$$$>$$$$$$$         ",
"           $>$$$>$>$>           "
};
