/* XPM */
static char *f3cc4cca3c9e431b9405198f6d8b58019LpVBQmbNYqoehTT[] = {
/* columns rows colors chars-per-pixel */
"64 64 196 2 ",
"   c None",
".  c #1F1D1F",
"X  c #1F1E1F",
"o  c #201E20",
"O  c #201F20",
"+  c #202020",
"@  c #212021",
"#  c gray13",
"$  c #212221",
"%  c #222222",
"&  c #222322",
"*  c #232323",
"=  c #222422",
"-  c #232423",
";  c #232523",
":  c #232623",
">  c gray14",
",  c #242524",
"<  c #252525",
"1  c #242624",
"2  c #242724",
"3  c #242824",
"4  c #252825",
"5  c #252925",
"6  c #262A26",
"7  c #262B26",
"8  c #272B27",
"9  c #272C27",
"0  c #272D27",
"q  c #282D28",
"w  c #282E28",
"e  c #282F28",
"r  c #292F29",
"t  c #293029",
"y  c #2A312A",
"u  c #2A322A",
"i  c #2A332A",
"p  c #2B332B",
"a  c #2B342B",
"s  c #2B352B",
"d  c #2C352C",
"f  c #2C362C",
"g  c #2C372C",
"h  c #2D372D",
"j  c #2D382D",
"k  c #2E392E",
"l  c #2E3A2E",
"z  c #2E3B2E",
"x  c #2F3B2F",
"c  c #2F3C2F",
"v  c #303C30",
"b  c #303D30",
"n  c #303E30",
"m  c #313E31",
"M  c #313F31",
"N  c #314031",
"B  c #324032",
"V  c #324132",
"C  c #324232",
"Z  c #334233",
"A  c #334333",
"S  c #344434",
"D  c #344534",
"F  c #354635",
"G  c #354735",
"H  c #364936",
"J  c #364A36",
"K  c #374B37",
"L  c #384B38",
"P  c #384D38",
"I  c #3B513B",
"U  c #3C533C",
"Y  c #3C543C",
"T  c #3D553D",
"R  c #3E583E",
"E  c #3F583F",
"W  c #3F593F",
"Q  c #405B40",
"!  c #415D41",
"~  c #415E41",
"^  c #425E42",
"/  c #425F42",
"(  c #436143",
")  c #446344",
"_  c #466546",
"`  c #466746",
"'  c #476947",
"]  c #486A48",
"[  c #486B48",
"{  c #496B49",
"}  c #4A6D4A",
"|  c #4B6E4B",
" . c #4B704B",
".. c #4C714C",
"X. c #4C724C",
"o. c #4D734D",
"O. c #4D744D",
"+. c #4E754E",
"@. c #4E764E",
"#. c #4F774F",
"$. c #4F784F",
"%. c #507850",
"&. c #507950",
"*. c #527C52",
"=. c #537F53",
"-. c #548054",
";. c #558255",
":. c #558355",
">. c #568356",
",. c #568456",
"<. c #568556",
"1. c #578557",
"2. c #578657",
"3. c #578757",
"4. c #588758",
"5. c #588858",
"6. c #598A59",
"7. c #5A8B5A",
"8. c #5A8C5A",
"9. c #5B8D5B",
"0. c #5B8E5B",
"q. c #5C905C",
"w. c #5D905D",
"e. c #5D915D",
"r. c #5D925D",
"t. c #5E925E",
"y. c #5E935E",
"u. c #5E945E",
"i. c #5F945F",
"p. c #5F955F",
"a. c #5F965F",
"s. c #609660",
"d. c #619861",
"f. c #619961",
"g. c #619A61",
"h. c #629A62",
"j. c #629B62",
"k. c #639B63",
"l. c #629C62",
"z. c #639C63",
"x. c #639D63",
"c. c #639E63",
"v. c #649D64",
"b. c #649F64",
"n. c #659F65",
"m. c #65A065",
"M. c #65A165",
"N. c #66A266",
"B. c #66A366",
"V. c #67A467",
"C. c #67A567",
"Z. c #68A668",
"A. c #68A768",
"S. c #69A769",
"D. c #69A869",
"F. c #6AA96A",
"G. c #6AAA6A",
"H. c #6BAB6B",
"J. c #6CAD6C",
"K. c #6CAE6C",
"L. c #6DAF6D",
"P. c #6DB06D",
"I. c #6EB06E",
"U. c #6EB16E",
"Y. c #6EB26E",
"T. c #6FB26F",
"R. c #6FB36F",
"E. c #6FB46F",
"W. c #70B470",
"Q. c #70B570",
"!. c #70B670",
"~. c #71B671",
"^. c #71B771",
"/. c #71B871",
"(. c #72B872",
"). c #72B972",
"_. c #72BA72",
"`. c #73BA73",
"'. c #73BB73",
"]. c #74BB74",
"[. c #74BC74",
"{. c #74BD74",
"}. c #75BD75",
"|. c #75BE75",
" X c #75BF75",
".X c #76C076",
"XX c #76C176",
"oX c #77C177",
"OX c #77C277",
"+X c #77C377",
"@X c #78C378",
"#X c #78C478",
"$X c #78C578",
"%X c #79C479",
"&X c #79C579",
"*X c #79C779",
/* pixels */
"                                                % % 1 % + % + % + % + % + % % %                                                 ",
"                                          1 % % % % O % % + % + % + % + % + % % + % %                                           ",
"                                      % % O % % % X % % + % + % + % + % % + % + % + % + %                                       ",
"                                  % % + % % % X % % % O % + % + % + % + + % + % + % + % % % %                                   ",
"                              % + % + % + % + % + % + % + % + % % + % + % + % + % + % + % + % + %                               ",
"                          % % % % + % + % + % + % + % + % + % + + % + % + % + % + % + % + % + % % % %                           ",
"                        % % % X + % + % + % + % + % + % + % + % % + % + % + % + % + % + % + % + % % + %                         ",
"                      % + + % % % + % + % + % % % + % + % + % + + % + % + % + % + % + % + % + % X % % + %                       ",
"                    + % + % + % % + % + X + X X O O O X X % X % X O O O % O % % + % % + % + % + % + % + X %                     ",
"                  % % + % + % + % X + s x x x x x x M M M N N A N N M x f 0 1 % X X + % % X + % + % + % % % %                   ",
"                % X % % + % + % % % 1 0.E.^.E.^.^.^.).^.^.).).).).).^.R.R.Z.z.3.' N : X % % % % % + % + % + + %                 ",
"              X % % % + % + % + % % 1 j.+X+X+X+XOXOX+XOXOX@X+X+XOXOXOXOX@X#X#X#X#X).q.J % O O O + % + % + % % + %               ",
"            % % + % + % + % + % + % : j.#XOXOXOXOXOXOXOX+X+X+X+XOXOXOXOXOXOXOXOXOX+X#X^.[ 1 O % % + % + + % + % % %             ",
"          % % % % + % + % + % + % % : j.#XOXOXOXOX@X#X#X#X+X#X#X#X#X#X#X+XOXOXOXOXOXOX#XOX$.: % + % + % % + % + X %             ",
"          % + % + % + % + % + % % X 1 j.#XOXOXOX XZ.j.y.8.3.<.:.3.6.p.V.E. X#X@XOXOXOXOXOX X` % % + % + + % + % % % %           ",
"        % + % + % + % + % + % + % % 1 j.#XOXOX@X).G : : % % % + % : : 0 x U =.L.#XOXOXOXOXOXR.N X % + % % + % + % + % %         ",
"        % X % % % + % + % + % + % + 1 j.@XOXOXOX^.M O % % O + % + % % X X X % x <.OXOXOXOXOX+X:.% % X % % + % + % + % +         ",
"      % % % % + + % + % + % + % + % 1 j.#XOXOX+X).N O % % % % + % + % % % % + X 1 =.OXOXOXOXOXR.x X + % + % + % + % + % %       ",
"      % + % + % % + % + % + % + % + : j.#XOXOX+X^.N X O O X % % + % % + % + + % O p Z.#XOXOXOXOXR X % + % + % + % + % + %       ",
"    % % % + % + + % + % + % + % + % : j.#XOXOX+X).N O % % % % + % + + % + % % + % X $.#XOXOXOX#XO.X + % + % + % + % + % % %     ",
"    + % + % + % % + % + % + % + O % 1 j.#XOXOX+X^.N O % + % + % + % + % + % + % % X ( OXOXOXOX#X:.O % % X % % + % + % + % %     ",
"  % % + % + % + + % + % + % + % % % 1 j.#XOXOX+X).N O % % + % + % + % + % + % + % X ( +XOXOXOX+X:.O O % + % + % + % + % X % %   ",
"  % + % + % + % % + % + % + % + % X 3 j.#XOXOX+X^.N X % + % + % + % + % + % + % % X ' #XOXOXOXOX..O % % % + % + % + % + X % %   ",
"  % % + % + % + + % + % + % + % % % 1 j.#XOXOX+X).N X + % + % + % + % + % + % + % % <.#XOXOXOXOXR O % O + % + % + % + % % % %   ",
"% % % + % + % + % + % + % + % + + % : j.#XOXOX+X).N O % + % + % + % % X % % + % O p G.#XOXOXOXR.x X % + % + % + % + % + % + % + ",
"% X + % + % + % + % + % + % + % % + : j.#XOXOX+X).M X % % % % + % + % % % + % X % O.OXOXOXOXOX:.% % + % + % + % + % + % + % + % ",
"% + % + % + % + % + % + % + % + % O : j.#XOXOX+X).M X % % X % + + % % % O O X 0 .. XOXOXOX#XR.M X % % + % + % + % + % + % + % + ",
"+ % + % + % + % + % + % + % + % % % 1 j.#XOXOXOX).G 1 : : : : : % : : 3 p G { n.OX+XOXOX@X).! % % X + % + % + % + % + % + % + % ",
"% + % + % + % + % + % + % + % + O % 1 j.@XOXOXOX XZ.z.j.j.p.p.p.y.p.j.N.L.).+X#XOXOX@X#XR.( % + % + % + % + % + % + % + % + % + ",
"+ % + % + % + % + % + % + % + % X % : j.@XOXOXOXOX@X#X#X#X+X#X#X+X#XOX#XOXOXOXOXOXOXL.4.A X % % + % + % + % + % + % + % + % + % ",
"% + % + % + % + % + % + % + % + % % : j.#XOXOXOXOXOXOXOXOXOXOX+XOXOXOXOXOXOXOXOXOX X<.M + X % + % + % + % + % + % + % + % + % + ",
"+ % + % + % + % + % + % + % + % % + : j.#XOXOXOXOX#X#X#X#X#X#X#X#X+X#X#X+XOXOXOXOXOXOXL.=.x X % + % + % + % + % + % + % + % + % ",
"+ % + % + % + % + % + % + % + % O % 1 j.#XOXOXOXOXL.Z.Z.n.n.j.j.z.z.N.G.E.{.OX+X@XOXOX@X#XG.Q % % % O % + % + % + % + % + % + % ",
"% + % + % + % + % + % + % + % + % % 1 j.#XOXOX+X^.L r 3 3 1 : : 3 3 3 p x K ' p.).#XOXOXOX#X].` O % O % % + % + % + % + % + % + ",
"+ % + % + % + % + % + % + % % % % X 3 j.#XOXOX+X).M O O % % + % % + % X X X O 1 G 8. XOXOXOX@X).U X % % + % + % + % + % + % + % ",
"% + % + % + % + % + % + % + X % % % 1 j.#XOXOX+X).M X % O % % + % % + % % % % % O 3 &.OXOXOXOX#Xz.0 % X % + % + % + % + % + % + ",
"+ % + % + % + % + % + % % O % % + % : j.#XOXOXOX^.M O % X % % % % % % O O X % % % X 3 y.#XOXOXOXOXR X % O % + % + % + % + % + % ",
"% + % + % + % + % + % + % O X O X O % j.#XOXOXOX).M o O X X X + X + X % % % % + X % X Y  XOXOXOX#X<.% % X % % + % + % + % + % + ",
"+ % + % + % + % + % + % % 0 N N N N G N.#XOXOXOX).R x x x x x s s s p : + % + % O % O x R.@XOXOX#XN.3 O % % + % + % + % + % + % ",
"% + % + % + % + % + % + X ! ).).).^.). XOXOXOXOX@X^.^.^.R.R.R.R.L.K.L.Y X + % + % % O r G.#XOXOX@XR.f % % + % + % + % + % + % + ",
"  % % + % + % + + % + % X ( #XOXOXOXOXOXOXOXOXOXOXOXOXOX#X@X+X#XOX@X#X! X % % + % + O 3 N.#XOXOXOX).N O + % + % + % + % + % +   ",
"  % + % + % + % % + % + X ( @XOX@X@X@XOXOXOXOXOXOXOXOXOX+XOXOXOXOX#X#X! X X + % + % % 0 N.#XOXOXOX XL O % + % + % + % + % + %   ",
"  % % % % + % + + % + % X ! ^.R.R.R.R. XOXOXOXOXOX X].).).).).).^.^.^.R X % + % % % X p G.#XOXOXOX XJ X + % + % + % + % % % %   ",
"    % X + % + % % + % + % 3 f x f x v n.@XOXOXOX].! G G A N N M x v v 3 % + % + % % O N ).OXOXOXOX^.N X % + % + % + % + X %     ",
"    X % % + % + + % + % % X X X O X % j.@XOXOXOX^.M O O X X O X O O X O % % + % X % X { OXOXOXOX@XL.s O + % + % + % + % % %     ",
"      % + % + % % + % + % % % % % % 1 j.#XOXOXOX).N O O % % % + % O % % % + % + % X p V.+XOXOXOX#Xs.: % % + % + % + % % %       ",
"      % % + % + + % + % + % % + % + 3 j.#XOXOX+X^.N X + % + + % % % O X + % % % X 3 <.OXOXOXOXOX#X[ O % + % + % + % % X %       ",
"        + % + % % + % + % + + % + % 1 j.#XOXOX+X).M O % + % % % O % % % O X X % N 8.OXOXOXOXOX@XR.c X % % + % + % + % %         ",
"        % % % % + % + % + % + % + % : j.@XOXOXOX).G 1 3 : : % % % % : 3 0 x R <.R.#XOXOXOXOXOX@XO.% % O + % + % + % % %         ",
"          % X % % + % + % + % + % % : j.#XOXOXOXOXZ.z.j.p.y.8.6.6.6.y.j.Z.^.OX#X@XOXOXOXOXOX#Xy.r % % % % + % + % + %           ",
"            X % + % + % + % + % % X 1 j.#XOXOXOXOX#X+X#X#X#X#X#X+X#X#X#X@XOXOXOXOXOXOXOX@XOXy.s X + X % + % + % + %             ",
"            % % % + % + % + % + % % 3 j.#XOXOXOXOXOXOXOXOXOXOXOXOXOXOXOXOXOXOXOXOXOX#X@XL. .0 X % % + % % + % % % +             ",
"              % + % + % + % + % + % : z.#XOX#X#X#X#X#X#X#X#X@X#X#X#X#X#X@X#X#X#XOX^.j.[ x O % % % + % + % + % X %               ",
"                % + % + % + % + % + : O.j.j.j.z.z.N.N.V.Z.Z.G.G.G.G.G.N.j.y.4...R M 3 O X + % X + % + % + % % %                 ",
"                  % + % + % + % + % % : : 1 : 3 3 3 3 3 0 8 r r p r 0 3 1 1 O O O O % % + % + % % + % + % + %                   ",
"                    % + % + % + % % X + % % + % % + % % O % % O X O % % O % % % O % O % % + % + + % + % + %                     ",
"                      % % % % + % + % + % + % + + % + % + % + % % % + % + % + % + % + % + % + % + % % % %                       ",
"                        % X + % + % + % + % + % % + % + % + % + % O % + % + % + % + % + % + % + % % X %                         ",
"                            % + % + % % % + % + + % + % + % + % % % + % + % + % + % + % + % + % + %                             ",
"                              % + % + X + % + % % + % + % + % + X % % + % + % + % + % + % + % + %                               ",
"                                  % % % + % % X + % + % + % + % + % + % + % + % % % + % % % %                                   ",
"                                      % % + % % % + % + % + % + % + % + % + % + X % % + %                                       ",
"                                          % % % + % + % + % + % + % + % + % + % % % %                                           ",
"                                                % + % + % + % + % + % + % + % +                                                 "
};
