/* XPM */
static char *_c374cec14434f91f233903f85e907d74stg0vOC21RTSw6d[] = {
/* columns rows colors chars-per-pixel */
"16 16 85 1 ",
"  c None",
". c #1E1C1E",
"X c #1F1D1F",
"o c #201E20",
"O c #201F20",
"+ c #202020",
"@ c #212021",
"# c gray13",
"$ c #222222",
"% c #232423",
"& c #232523",
"* c #232623",
"= c #242824",
"- c #262A26",
"; c #262B26",
": c #272D27",
"> c #282E28",
", c #292F29",
"< c #293029",
"1 c #2A332A",
"2 c #2B332B",
"3 c #2C362C",
"4 c #2D372D",
"5 c #303E30",
"6 c #313E31",
"7 c #314031",
"8 c #324032",
"9 c #344434",
"0 c #354735",
"q c #364736",
"w c #364936",
"e c #374937",
"r c #374A37",
"t c #374B37",
"y c #384B38",
"u c #384C38",
"i c #394D39",
"p c #3A4F3A",
"a c #3B533B",
"s c #3D553D",
"d c #3F593F",
"f c #415D41",
"g c #425E42",
"h c #436043",
"j c #446244",
"k c #446344",
"l c #466546",
"z c #476747",
"x c #476847",
"c c #496D49",
"v c #4A6E4A",
"b c #4C714C",
"n c #4C724C",
"m c #4E754E",
"M c #4F774F",
"N c #4F784F",
"B c #507850",
"V c #507950",
"C c #568456",
"Z c #598A59",
"A c #5A8B5A",
"S c #5B8D5B",
"D c #5B8E5B",
"F c #5F955F",
"G c #609660",
"H c #629A62",
"J c #639D63",
"K c #65A065",
"L c #65A165",
"P c #66A366",
"I c #67A467",
"U c #67A567",
"Y c #6DAF6D",
"T c #6EB06E",
"R c #6EB16E",
"E c #70B670",
"W c #71B671",
"Q c #71B871",
"! c #72B972",
"~ c #73BA73",
"^ c #74BC74",
"/ c #74BD74",
"( c #75BD75",
") c #75BF75",
"_ c #76C076",
/* pixels */
"     ######     ",
"   ##oo#ooX##   ",
"  ##3bMVNvy###  ",
" ##Xr^PZDU~v### ",
" ##Xr~so#:CT4## ",
"####r~aX+Xh~8###",
"###Xr~g><8FG;###",
"####r~YPUETro###",
"###Xq~bqrgFJ3+##",
"###6b^Mi9X8Rx+##",
"###jJ_PGN*<TN###",
" ###y^f*==z_jX# ",
" ##oi/PZSJED>## ",
"  ##<zvvbzi;##  ",
"   ##oo#ooo##   ",
"     ######     "
};
